<svg width="48" height="48" viewBox="0 0 48 48" fill="none" xmlns="http://www.w3.org/2000/svg">
<rect width="48" height="48" rx="10" fill="url(#paint0_linear_21_581)"/>
<path d="M17.6449 26.5506C17.6449 28.0559 17.8392 29.4641 18.2276 30.7751C18.9074 33.0452 19.8847 34.5202 21.1593 35.2C21.9241 35.6128 22.7436 35.8191 23.6176 35.8191H23.8907C24.7648 35.8191 25.566 35.5946 26.2944 35.1454C27.0349 34.6962 27.6358 34.1014 28.0971 33.3609C29.1897 31.6128 29.736 29.4337 29.736 26.8237V25.1302C29.736 22.4959 29.1654 20.3047 28.0243 18.5566C27.5873 17.8768 27.0106 17.3245 26.2944 16.8996C25.5781 16.4625 24.8437 16.244 24.091 16.244H23.2534C22.6464 16.244 21.9848 16.4261 21.2686 16.7903C19.8968 17.4701 18.8892 18.9147 18.2458 21.1242C17.8695 22.3988 17.6813 23.6431 17.6813 24.8571L17.6449 25.4216V26.5506ZM22.5068 12.9481H22.1791C21.5235 12.9481 21.1958 12.7235 21.1958 12.2744V11.8556C21.1958 11.6613 21.6874 10.7933 22.6707 9.25162C23.654 7.69775 24.2064 6.86012 24.3278 6.73872C25.0076 6.0589 25.7238 5.71899 26.4765 5.71899H26.9681C27.4416 5.71899 28.0425 5.93751 28.7709 6.37453C29.0137 6.52021 29.1351 6.69016 29.1351 6.8844V6.99365C29.1351 7.75845 27.5812 9.5369 24.4734 12.329C24.0121 12.7418 23.3566 12.9481 22.5068 12.9481ZM12 27.115V26.241C12 24.5536 12.2853 22.9269 12.8558 21.3609C13.9605 18.326 15.8118 16.2137 18.4097 15.024C20.0971 14.2471 21.7542 13.8586 23.3809 13.8586H24.2549C25.9545 13.8707 27.5205 14.1803 28.953 14.7873C31.83 16.0134 33.8634 18.1317 35.0531 21.1424C35.6844 22.7205 36 24.4322 36 26.2774V26.6962C35.9879 28.5172 35.6904 30.2289 35.1077 31.8313C33.9423 35.024 31.8604 37.2577 28.8619 38.5323C27.2595 39.2122 25.5599 39.5521 23.7633 39.5521H23.3263C21.6388 39.5521 20.0789 39.2304 18.6464 38.587C15.9272 37.3609 14.0212 35.2547 12.9287 32.2683C12.3096 30.5809 12 28.8632 12 27.115Z" fill="#F0BEBE"/>
<path d="M22.6019 24.6377L23.5026 21.0356C23.5664 20.7811 23.9116 20.7811 23.9754 21.0356L24.8761 24.6377C24.9088 24.7679 24.9972 24.8742 25.1166 24.9248L27.2779 25.8521C27.48 25.9386 27.48 26.2394 27.2779 26.326L25.1166 27.2533C24.998 27.3039 24.9088 27.411 24.8761 27.5404L23.9754 31.1424C23.9116 31.397 23.5664 31.397 23.5026 31.1424L22.6019 27.5404C22.5692 27.4101 22.4809 27.3039 22.3614 27.2533L20.2001 26.326C19.9981 26.2394 19.9981 25.9386 20.2001 25.8521L22.3614 24.9248C22.48 24.8742 22.5692 24.7671 22.6019 24.6377Z" fill="#F0BEBE"/>
<defs>
<linearGradient id="paint0_linear_21_581" x1="24" y1="0" x2="24" y2="48" gradientUnits="userSpaceOnUse">
<stop stop-color="#824D69"/>
<stop offset="0.33" stop-color="#522959"/>
<stop offset="0.66" stop-color="#2A114B"/>
<stop offset="1" stop-color="#180018"/>
</linearGradient>
</defs>
</svg>
