<svg width="122" height="44" viewBox="0 0 122 44" fill="none" xmlns="http://www.w3.org/2000/svg">
<path d="M110.206 9.49646C114.379 9.49646 117.185 9.86381 118.623 10.5985C119.702 11.1456 120.241 12.5525 120.241 14.8192C120.241 17.0858 119.858 18.2191 119.092 18.2191C118.467 18.2191 117.443 17.5626 116.021 16.2495C114.598 14.9208 113.52 14.0532 112.785 13.6468C112.05 13.2403 111.089 13.0371 109.901 13.0371C108.728 13.0371 107.72 13.4201 106.876 14.1861C106.048 14.952 105.633 15.8665 105.633 16.9295C105.633 18.352 106.415 19.626 107.978 20.7515C108.76 21.3143 110.565 22.2287 113.395 23.4949C116.224 24.7611 118.24 26.0039 119.444 27.2232C121.148 28.9583 122 30.9123 122 33.0852C122 37.6184 119.757 40.6745 115.27 42.2533C113.942 42.7223 112.582 42.9568 111.19 42.9568H110.346C108.627 42.9568 106.72 42.7614 104.625 42.3706C102.53 41.9798 101.209 41.5968 100.662 41.2216C99.6462 40.5182 99.1382 38.8846 99.1382 36.321V35.5238C99.1382 33.8668 99.5837 33.0383 100.475 33.0383C101.1 33.0383 102.093 33.8355 103.453 35.43C104.813 37.0244 105.954 38.0874 106.876 38.6189C107.814 39.1504 109.002 39.4161 110.44 39.4161C111.894 39.4161 113.113 39.0019 114.098 38.1734C115.083 37.3449 115.575 36.446 115.575 35.4769C115.575 34.0231 115.138 32.8272 114.262 31.8893C113.387 30.9514 111.644 29.8806 109.033 28.6769C106.423 27.4733 104.617 26.5041 103.617 25.7694C100.866 23.7372 99.4899 21.2986 99.4899 18.4536C99.4899 17.8596 99.5524 17.2421 99.6775 16.6012C100.193 13.9125 101.921 11.8803 104.859 10.5047C106.298 9.83255 107.798 9.49646 109.362 9.49646H110.206Z" fill="#824D69"/>
<path d="M86.7576 27.5045V25.9335C86.7576 24.3391 86.5466 22.6664 86.1245 20.9156C85.2804 17.4297 83.7954 15.0146 81.6694 13.6702C80.7159 13.0762 79.6216 12.7792 78.3867 12.7792H78.035C77.0189 12.7792 75.9794 13.084 74.9164 13.6937C72.853 14.8817 71.4383 16.9764 70.6723 19.9777C70.1877 21.8536 69.9454 23.7216 69.9454 25.5818V26.379C69.9454 28.208 70.1799 30.0135 70.6489 31.7955C71.5868 35.3127 73.1969 37.7513 75.4791 39.1113C76.4171 39.674 77.3862 39.9554 78.3867 39.9554H79.0901C80.1531 39.9554 81.177 39.6506 82.1618 39.041C83.1466 38.4157 83.9517 37.5794 84.577 36.532C86.0307 34.1091 86.7576 31.0999 86.7576 27.5045ZM63.1924 26.4963C63.1924 23.9951 63.5754 21.6816 64.3413 19.5557C65.8264 15.3975 68.4291 12.5134 72.1495 10.9033C74.3067 9.96542 76.5109 9.49646 78.7619 9.49646L79.3246 9.51991H79.8639C81.6772 9.51991 83.5609 9.93416 85.5149 10.7627C87.4689 11.5911 89.1337 12.7714 90.5093 14.3033C91.9006 15.8196 92.9557 17.5938 93.6748 19.626C94.3939 21.6425 94.7534 23.6903 94.7534 25.7694V26.3087C94.7534 28.6691 94.3548 30.9279 93.5576 33.0852C92.776 35.2267 91.6426 37.0635 90.1576 38.5954C87.1562 41.7062 83.1779 43.2694 78.2226 43.285C76.1904 43.285 74.2286 42.9021 72.3371 42.1361C70.4613 41.3545 68.8902 40.2681 67.6241 38.8768C64.6696 35.5941 63.1924 31.4672 63.1924 26.4963Z" fill="#824D69"/>
<path d="M48.3967 11.3253C48.3967 11.5286 47.9121 12.1773 46.9429 13.2715C45.9893 14.3501 45.4188 15.2646 45.2312 16.0149C45.0592 16.7653 44.9733 20.3528 44.9733 26.7776C44.9733 33.1867 45.0592 36.7274 45.2312 37.3995C45.4188 38.0717 45.8018 38.5328 46.3801 38.783C46.9585 39.0174 47.9512 39.1347 49.358 39.1347C50.7649 39.1347 51.992 38.8768 53.0394 38.3609C54.1024 37.845 55.2435 36.9228 56.4628 35.594C57.6821 34.2653 58.7294 33.6009 59.6048 33.6009C60.277 33.6009 60.6131 34.023 60.6131 34.8671V35.4768C60.6131 36.6492 60.4255 37.9545 60.0503 39.3926C59.6752 40.8151 59.3782 41.628 59.1593 41.8312C58.6747 42.2845 57.5023 42.5112 55.6421 42.5112H43.0505C38.9393 42.5112 36.6649 42.4721 36.2272 42.394C35.4768 42.2533 35.1017 41.8312 35.1017 41.1278C35.1017 40.7526 35.5159 40.1508 36.3444 39.3223C37.1729 38.4938 37.7435 37.4152 38.0561 36.0864C38.1812 35.5549 38.2437 32.0534 38.2437 25.5817C38.2437 19.1101 38.1499 15.5616 37.9623 14.9363C37.7747 14.3111 37.1729 13.678 36.1568 13.037C35.1407 12.3961 34.6327 11.6771 34.6327 10.8798C34.6327 10.2389 36.1568 9.91846 39.2051 9.91846H45.4188C46.6381 9.91846 47.4353 10.0122 47.8105 10.1998C48.2013 10.3718 48.3967 10.747 48.3967 11.3253Z" fill="#824D69"/>
<path d="M7.26888 26.8245C7.26888 28.7629 7.519 30.5762 8.01922 32.2645C8.89461 35.1876 10.153 37.0869 11.7943 37.9623C12.7792 38.4938 13.8343 38.7596 14.9598 38.7596H15.3116C16.4371 38.7596 17.4688 38.4704 18.4067 37.892C19.3602 37.3136 20.134 36.5476 20.728 35.5941C22.1349 33.3431 22.8384 30.5371 22.8384 27.1762V24.9956C22.8384 21.6034 22.1037 18.7819 20.6342 16.5308C20.0715 15.6555 19.329 14.9442 18.4067 14.3971C17.4844 13.8343 16.5387 13.5529 15.5695 13.5529H14.4909C13.7093 13.5529 12.8573 13.7874 11.935 14.2564C10.1686 15.1318 8.87116 16.992 8.04267 19.837C7.55808 21.4784 7.31578 23.0807 7.31578 24.6439L7.26888 25.3707V26.8245ZM13.5295 9.30886H13.1074C12.2633 9.30886 11.8412 9.01967 11.8412 8.44128V7.90198C11.8412 7.65187 12.4743 6.53418 13.7405 4.54891C15.0067 2.54802 15.718 1.46941 15.8743 1.31309C16.7497 0.437696 17.672 0 18.6412 0H19.2743C19.8839 0 20.6577 0.281376 21.5956 0.844128C21.9083 1.03171 22.0646 1.25056 22.0646 1.50067V1.64136C22.0646 2.62618 20.0637 4.91627 16.0619 8.51163C15.4679 9.04312 14.6237 9.30886 13.5295 9.30886ZM0 27.5514V26.4259C0 24.2531 0.367352 22.1584 1.10206 20.1418C2.52457 16.2338 4.90845 13.5139 8.2537 11.9819C10.4265 10.9815 12.5603 10.4813 14.655 10.4813H15.7805C17.969 10.4969 19.9855 10.8955 21.8301 11.6771C25.5349 13.2559 28.1532 15.9837 29.6852 19.8605C30.498 21.8926 30.9045 24.0967 30.9045 26.4728V27.0121C30.8888 29.3569 30.5059 31.561 29.7555 33.6244C28.2549 37.7357 25.574 40.612 21.7129 42.2533C19.6494 43.1287 17.461 43.5664 15.1474 43.5664H14.5847C12.4118 43.5664 10.4031 43.1522 8.55852 42.3237C5.05695 40.7448 2.60273 38.0327 1.19585 34.1872C0.398616 32.0144 0 29.8024 0 27.5514Z" fill="#824D69"/>
<path d="M13.6519 24.3617L14.8117 19.7234C14.8939 19.3956 15.3384 19.3956 15.4206 19.7234L16.5804 24.3617C16.6225 24.5294 16.7363 24.6663 16.8901 24.7314L19.6731 25.9254C19.9333 26.0369 19.9333 26.4242 19.6731 26.5357L16.8901 27.7298C16.7373 27.7949 16.6225 27.9328 16.5804 28.0995L15.4206 32.7378C15.3384 33.0655 14.8939 33.0655 14.8117 32.7378L13.6519 28.0995C13.6098 27.9317 13.496 27.7949 13.3422 27.7298L10.5592 26.5357C10.299 26.4242 10.299 26.0369 10.5592 25.9254L13.3422 24.7314C13.495 24.6663 13.6098 24.5283 13.6519 24.3617Z" fill="#824D69"/>
</svg>
