<svg width="17" height="17" viewBox="0 0 17 17" fill="none" xmlns="http://www.w3.org/2000/svg">
<path id="Vector" d="M5.68578 5.16364L7.43009 0.906154C7.75332 0.116243 8.87221 0.116243 9.19735 0.906154L10.9417 5.16364C11.0392 5.4008 11.2266 5.58824 11.4638 5.68578L15.7213 7.43009C16.5112 7.75332 16.5112 8.87221 15.7213 9.19735L11.4638 10.9417C11.2266 11.0392 11.0392 11.2266 10.9417 11.4638L9.19735 15.7213C8.87412 16.5112 7.75524 16.5112 7.43009 15.7213L5.68578 11.4638C5.58824 11.2266 5.4008 11.0392 5.16364 10.9417L0.906154 9.19735C0.116243 8.87412 0.116243 7.75524 0.906154 7.43009L5.16364 5.68578C5.4008 5.58824 5.58824 5.4008 5.68578 5.16364Z" fill="#824D69"/>
</svg>
