<svg width="30" height="45" viewBox="0 0 30 45" fill="none" xmlns="http://www.w3.org/2000/svg">
<path d="M25.2994 9.75632L23.7732 13.4816C23.4903 14.1728 22.5113 14.1728 22.2268 13.4816L20.7006 9.75632C20.6152 9.5488 20.4512 9.38479 20.2437 9.29944L16.5184 7.77317C15.8272 7.49035 15.8272 6.51133 16.5184 6.22682L20.2437 4.70056C20.4512 4.6152 20.6152 4.4512 20.7006 4.24368L22.2268 0.51838C22.5097 -0.172792 23.4887 -0.172792 23.7732 0.518381L25.2994 4.24368C25.3848 4.4512 25.5488 4.61521 25.7563 4.70056L29.4816 6.22682C30.1728 6.50965 30.1728 7.48867 29.4816 7.77318L25.7563 9.29944C25.5488 9.38479 25.3848 9.5488 25.2994 9.75632Z" fill="#522959"/>
<path d="M12.4271 35.2361L10.1086 44.5086C9.94433 45.1638 9.05567 45.1638 8.89141 44.5086L6.57287 35.2361C6.48864 34.9008 6.26121 34.6272 5.95375 34.4971L0.390109 32.11C-0.130034 31.8872 -0.130034 31.1128 0.390109 30.89L5.95375 28.5029C6.2591 28.3728 6.48864 28.097 6.57287 27.7639L8.89141 18.4914C9.05567 17.8362 9.94433 17.8362 10.1086 18.4914L12.4271 27.7639C12.5114 28.0992 12.7388 28.3728 13.0462 28.5029L18.6099 30.89C19.13 31.1128 19.13 31.8872 18.6099 32.11L13.0462 34.4971C12.7409 34.6272 12.5114 34.903 12.4271 35.2361Z" fill="#522959"/>
</svg>
