<svg width="32" height="45" viewBox="0 0 32 45" fill="none" xmlns="http://www.w3.org/2000/svg">
<path d="M4.70056 35.2437L6.22682 31.5184C6.50965 30.8272 7.48867 30.8272 7.77318 31.5184L9.29944 35.2437C9.3848 35.4512 9.5488 35.6152 9.75632 35.7006L13.4816 37.2268C14.1728 37.5097 14.1728 38.4887 13.4816 38.7732L9.75632 40.2994C9.5488 40.3848 9.3848 40.5488 9.29944 40.7563L7.77318 44.4816C7.49035 45.1728 6.51133 45.1728 6.22682 44.4816L4.70056 40.7563C4.61521 40.5488 4.4512 40.3848 4.24368 40.2994L0.518379 38.7732C-0.172793 38.4903 -0.172793 37.5113 0.518379 37.2268L4.24368 35.7006C4.4512 35.6152 4.61521 35.4512 4.70056 35.2437Z" fill="#824D69"/>
<path d="M19.5729 9.76388L21.8914 0.491421C22.0557 -0.163807 22.9443 -0.163807 23.1086 0.491421L25.4271 9.76388C25.5114 10.0992 25.7388 10.3728 26.0462 10.5029L31.6099 12.89C32.13 13.1128 32.13 13.8872 31.6099 14.11L26.0462 16.4971C25.7409 16.6272 25.5114 16.903 25.4271 17.2361L23.1086 26.5086C22.9443 27.1638 22.0557 27.1638 21.8914 26.5086L19.5729 17.2361C19.4886 16.9008 19.2612 16.6272 18.9538 16.4971L13.3901 14.11C12.87 13.8872 12.87 13.1128 13.3901 12.89L18.9538 10.5029C19.2591 10.3728 19.4886 10.097 19.5729 9.76388Z" fill="#824D69"/>
</svg>
